<?xml version="1.0" encoding="utf-8" ?>
<svg baseProfile="tiny" height="262px" version="1.2" width="323px" xmlns="http://www.w3.org/2000/svg" xmlns:ev="http://www.w3.org/2001/xml-events" xmlns:xlink="http://www.w3.org/1999/xlink"><defs /><path d="M 183 3 L 183 6 L 184 6 L 185 7 L 186 7 L 188 5 L 188 4 L 187 3 Z" fill="black" stroke="none" /><path d="M 147 3 L 146 4 L 146 6 L 147 7 L 150 7 L 150 4 L 149 3 Z" fill="black" stroke="none" /><path d="M 138 0 L 136 2 L 136 5 L 135 6 L 135 8 L 136 9 L 136 12 L 146 22 L 146 23 L 131 38 L 130 38 L 129 37 L 128 37 L 127 36 L 127 35 L 126 35 L 122 31 L 122 30 L 114 22 L 114 21 L 113 20 L 113 19 L 112 18 L 112 17 L 110 15 L 110 13 L 109 12 L 109 10 L 108 9 L 108 8 L 106 6 L 104 6 L 103 7 L 103 8 L 102 9 L 102 11 L 100 13 L 100 16 L 99 17 L 99 20 L 98 21 L 98 26 L 97 27 L 97 40 L 98 41 L 98 43 L 99 44 L 99 46 L 100 47 L 100 48 L 101 48 L 103 50 L 103 51 L 105 53 L 106 53 L 109 56 L 109 57 L 110 58 L 110 59 L 96 73 L 94 73 L 88 67 L 87 67 L 85 65 L 84 65 L 83 64 L 82 64 L 81 63 L 78 63 L 77 62 L 72 62 L 71 61 L 64 61 L 63 62 L 57 62 L 56 63 L 53 63 L 52 64 L 51 64 L 50 65 L 48 65 L 47 66 L 46 66 L 45 67 L 43 67 L 42 68 L 41 68 L 41 70 L 42 71 L 43 71 L 44 72 L 46 72 L 47 73 L 49 73 L 50 74 L 51 74 L 53 76 L 54 76 L 55 77 L 56 77 L 58 79 L 59 79 L 62 82 L 63 82 L 68 87 L 69 87 L 71 89 L 71 90 L 74 93 L 74 95 L 67 102 L 66 102 L 64 104 L 64 105 L 60 109 L 58 109 L 51 102 L 48 102 L 47 101 L 45 101 L 44 100 L 42 100 L 41 101 L 40 101 L 39 102 L 38 102 L 37 103 L 36 103 L 35 104 L 35 105 L 34 106 L 34 107 L 32 109 L 32 110 L 31 111 L 31 113 L 32 114 L 32 116 L 34 118 L 34 119 L 37 122 L 38 122 L 39 123 L 40 123 L 41 124 L 46 124 L 47 123 L 49 123 L 50 122 L 51 122 L 59 114 L 60 114 L 68 122 L 69 122 L 75 128 L 75 131 L 68 138 L 67 138 L 59 146 L 56 143 L 56 142 L 51 137 L 49 137 L 48 136 L 46 136 L 45 135 L 42 135 L 41 136 L 39 136 L 37 138 L 36 138 L 34 140 L 34 141 L 32 143 L 32 145 L 31 146 L 31 148 L 32 149 L 32 150 L 33 151 L 33 152 L 35 154 L 35 155 L 36 156 L 37 156 L 38 157 L 39 157 L 40 158 L 42 158 L 43 159 L 44 159 L 45 158 L 47 158 L 48 157 L 51 157 L 58 150 L 59 150 L 67 158 L 68 158 L 69 159 L 69 160 L 71 162 L 72 162 L 73 163 L 73 164 L 74 165 L 74 166 L 71 169 L 71 170 L 68 173 L 67 173 L 61 179 L 60 179 L 58 181 L 57 181 L 56 182 L 55 182 L 53 184 L 52 184 L 51 185 L 50 185 L 49 186 L 48 186 L 47 187 L 45 187 L 44 188 L 42 188 L 41 189 L 41 191 L 42 192 L 44 192 L 45 193 L 47 193 L 48 194 L 49 194 L 50 195 L 51 195 L 52 196 L 54 196 L 55 197 L 62 197 L 63 198 L 72 198 L 73 197 L 80 197 L 81 196 L 82 196 L 84 194 L 85 194 L 86 193 L 87 193 L 94 186 L 95 186 L 96 187 L 97 187 L 99 189 L 99 190 L 101 192 L 102 192 L 105 195 L 105 196 L 107 198 L 108 198 L 110 200 L 110 202 L 99 213 L 99 215 L 98 216 L 98 218 L 97 219 L 97 232 L 98 233 L 98 238 L 99 239 L 99 243 L 100 244 L 100 246 L 101 247 L 101 248 L 102 249 L 102 250 L 103 251 L 103 252 L 104 253 L 106 253 L 107 252 L 108 252 L 108 250 L 109 249 L 109 247 L 110 246 L 110 245 L 111 244 L 111 243 L 112 242 L 112 241 L 114 239 L 114 238 L 117 235 L 117 234 L 130 221 L 131 222 L 132 222 L 146 236 L 146 237 L 136 247 L 136 250 L 135 251 L 135 253 L 136 254 L 136 257 L 140 261 L 156 261 L 160 257 L 160 254 L 161 253 L 161 248 L 160 247 L 160 246 L 157 243 L 156 243 L 155 242 L 155 241 L 151 237 L 151 236 L 166 221 L 168 221 L 182 235 L 182 237 L 173 246 L 173 255 L 174 256 L 174 257 L 178 261 L 192 261 L 193 260 L 194 260 L 197 257 L 197 255 L 198 254 L 198 249 L 197 248 L 197 246 L 188 237 L 188 235 L 202 221 L 204 221 L 205 222 L 206 222 L 210 226 L 210 227 L 211 228 L 212 228 L 215 231 L 215 232 L 219 236 L 219 237 L 220 238 L 220 239 L 222 241 L 222 242 L 223 243 L 223 244 L 224 245 L 224 247 L 225 248 L 225 250 L 227 252 L 230 252 L 230 251 L 232 249 L 232 247 L 233 246 L 233 244 L 234 243 L 234 241 L 235 240 L 235 237 L 236 236 L 236 216 L 235 215 L 235 213 L 233 211 L 233 210 L 231 208 L 230 208 L 228 206 L 228 205 L 226 203 L 225 203 L 224 202 L 224 201 L 223 200 L 238 185 L 239 185 L 246 192 L 247 192 L 249 194 L 251 194 L 253 196 L 256 196 L 257 197 L 275 197 L 276 196 L 279 196 L 280 195 L 282 195 L 283 194 L 284 194 L 285 193 L 287 193 L 288 192 L 289 192 L 290 191 L 292 191 L 293 190 L 293 188 L 291 188 L 290 187 L 289 187 L 288 186 L 286 186 L 285 185 L 284 185 L 283 184 L 282 184 L 280 182 L 279 182 L 278 181 L 277 181 L 275 179 L 274 179 L 272 177 L 271 177 L 265 171 L 264 171 L 262 169 L 262 168 L 259 165 L 259 164 L 274 149 L 275 149 L 283 157 L 288 157 L 289 158 L 292 158 L 293 157 L 294 157 L 295 156 L 296 156 L 297 155 L 298 155 L 299 154 L 299 153 L 300 152 L 300 151 L 301 150 L 301 149 L 302 148 L 302 144 L 301 143 L 301 142 L 300 141 L 300 140 L 297 137 L 296 137 L 294 135 L 286 135 L 285 136 L 283 136 L 274 145 L 264 135 L 263 135 L 258 130 L 258 128 L 265 121 L 266 121 L 274 113 L 275 113 L 278 116 L 278 117 L 283 122 L 286 122 L 287 123 L 293 123 L 294 122 L 295 122 L 296 121 L 297 121 L 299 119 L 299 118 L 301 116 L 301 115 L 302 114 L 302 109 L 300 107 L 300 106 L 299 105 L 299 104 L 297 102 L 296 102 L 295 101 L 294 101 L 293 100 L 287 100 L 286 101 L 283 101 L 276 108 L 274 108 L 264 98 L 263 98 L 262 97 L 262 96 L 259 93 L 262 90 L 262 89 L 265 86 L 266 86 L 271 81 L 272 81 L 275 78 L 276 78 L 278 76 L 279 76 L 281 74 L 282 74 L 283 73 L 284 73 L 285 72 L 287 72 L 288 71 L 290 71 L 291 70 L 292 70 L 293 69 L 293 68 L 292 67 L 290 67 L 289 66 L 288 66 L 287 65 L 286 65 L 285 64 L 283 64 L 282 63 L 281 63 L 280 62 L 276 62 L 275 61 L 270 61 L 269 60 L 263 60 L 262 61 L 257 61 L 256 62 L 253 62 L 252 63 L 251 63 L 250 64 L 249 64 L 248 65 L 247 65 L 239 73 L 234 68 L 233 68 L 232 67 L 232 66 L 231 66 L 227 62 L 227 61 L 224 58 L 224 56 L 234 46 L 234 45 L 235 44 L 235 43 L 236 42 L 236 22 L 235 21 L 235 17 L 234 16 L 234 15 L 233 14 L 233 12 L 232 11 L 232 9 L 231 8 L 231 7 L 229 5 L 228 5 L 227 6 L 226 6 L 226 7 L 225 8 L 225 9 L 224 10 L 224 13 L 223 14 L 223 15 L 221 17 L 221 18 L 220 19 L 220 20 L 219 21 L 219 22 L 204 37 L 203 37 L 202 36 L 201 36 L 195 30 L 195 29 L 194 29 L 187 22 L 197 12 L 197 10 L 198 9 L 198 4 L 197 3 L 197 1 L 196 0 L 191 0 L 194 3 L 194 4 L 195 5 L 195 7 L 194 8 L 194 11 L 187 18 L 184 18 L 178 12 L 178 11 L 177 10 L 177 9 L 176 8 L 176 5 L 177 4 L 177 3 L 180 0 L 181 0 L 175 0 L 174 1 L 174 2 L 173 3 L 173 11 L 178 16 L 178 17 L 183 22 L 168 37 L 165 37 L 151 23 L 151 22 L 160 13 L 160 12 L 161 11 L 161 6 L 160 5 L 160 3 L 159 2 L 159 1 L 158 0 L 150 0 L 152 0 L 153 1 L 154 1 L 157 4 L 157 6 L 158 7 L 157 8 L 157 10 L 156 11 L 156 12 L 149 19 L 147 19 L 139 11 L 139 8 L 138 7 L 139 6 L 139 4 L 143 0 L 146 0 Z" fill="black" stroke="none" /></svg>